<svg width="1261" height="712" viewBox="0 0 1261 712" fill="none" xmlns="http://www.w3.org/2000/svg">
<path d="M282 83L81 145.5L21.5 42.5L263 276M282 83L263 276M282 83L689.5 20.5M263 276L483 145.5L689.5 333M263 276L689.5 20.5M689.5 333L774 585.5L689.5 20.5M689.5 333L1045.5 295M689.5 20.5L839 124M839 124L1214 145.5L1045.5 295M839 124L999.5 689M1045.5 295L1129.5 504M1129.5 504L999.5 689M1129.5 504L1246.5 675.5L999.5 689" stroke="#9DDCDC"/>
<circle cx="261" cy="275" r="20" fill="#9DDCDC"/>
<circle cx="483" cy="143" r="20" fill="#9DDCDC"/>
<circle cx="687" cy="334" r="20" fill="#9DDCDC"/>
<circle cx="20" cy="40" r="20" fill="#9DDCDC"/>
<circle cx="1241" cy="674" r="20" fill="#9DDCDC"/>
<circle cx="1043" cy="294" r="20" fill="#9DDCDC"/>
<circle cx="1127" cy="500" r="20" fill="#9DDCDC"/>
<circle cx="1219" cy="143" r="20" fill="#9DDCDC"/>
<circle cx="776" cy="586" r="20" fill="#9DDCDC"/>
<circle cx="991" cy="692" r="20" fill="#9DDCDC"/>
<circle cx="282" cy="80" r="20" fill="#9DDCDC"/>
<circle cx="841" cy="123" r="20" fill="#9DDCDC"/>
<circle cx="687" cy="20" r="20" fill="#9DDCDC"/>
<circle cx="79" cy="143" r="20" fill="#9DDCDC"/>
</svg>
