<svg width="584" height="568" viewBox="0 0 584 568" fill="none" xmlns="http://www.w3.org/2000/svg">
<path d="M436.855 429.621H439.299C440.834 429.598 442.041 429.193 442.92 428.408C443.799 427.623 444.238 426.562 444.238 425.227C444.238 422.227 442.744 420.727 439.756 420.727C438.35 420.727 437.225 421.131 436.381 421.939C435.549 422.736 435.133 423.797 435.133 425.121H431.881C431.881 423.094 432.619 421.412 434.096 420.076C435.584 418.729 437.471 418.055 439.756 418.055C442.17 418.055 444.062 418.693 445.434 419.971C446.805 421.248 447.49 423.023 447.49 425.297C447.49 426.41 447.127 427.488 446.4 428.531C445.686 429.574 444.707 430.354 443.465 430.869C444.871 431.314 445.955 432.053 446.717 433.084C447.49 434.115 447.877 435.375 447.877 436.863C447.877 439.16 447.127 440.982 445.627 442.33C444.127 443.678 442.176 444.352 439.773 444.352C437.371 444.352 435.414 443.701 433.902 442.4C432.402 441.1 431.652 439.383 431.652 437.25H434.922C434.922 438.598 435.361 439.676 436.24 440.484C437.119 441.293 438.297 441.697 439.773 441.697C441.344 441.697 442.545 441.287 443.377 440.467C444.209 439.646 444.625 438.469 444.625 436.934C444.625 435.445 444.168 434.303 443.254 433.506C442.34 432.709 441.021 432.299 439.299 432.275H436.855V429.621Z" fill="#FFEBB7"/>
<path d="M373.855 88.6211H376.299C377.834 88.5977 379.041 88.1934 379.92 87.4082C380.799 86.623 381.238 85.5625 381.238 84.2266C381.238 81.2266 379.744 79.7266 376.756 79.7266C375.35 79.7266 374.225 80.1309 373.381 80.9395C372.549 81.7363 372.133 82.7969 372.133 84.1211H368.881C368.881 82.0938 369.619 80.4121 371.096 79.0762C372.584 77.7285 374.471 77.0547 376.756 77.0547C379.17 77.0547 381.062 77.6934 382.434 78.9707C383.805 80.248 384.49 82.0234 384.49 84.2969C384.49 85.4102 384.127 86.4883 383.4 87.5312C382.686 88.5742 381.707 89.3535 380.465 89.8691C381.871 90.3145 382.955 91.0527 383.717 92.084C384.49 93.1152 384.877 94.375 384.877 95.8633C384.877 98.1602 384.127 99.9824 382.627 101.33C381.127 102.678 379.176 103.352 376.773 103.352C374.371 103.352 372.414 102.701 370.902 101.4C369.402 100.1 368.652 98.3828 368.652 96.25H371.922C371.922 97.5977 372.361 98.6758 373.24 99.4844C374.119 100.293 375.297 100.697 376.773 100.697C378.344 100.697 379.545 100.287 380.377 99.4668C381.209 98.6465 381.625 97.4688 381.625 95.9336C381.625 94.4453 381.168 93.3027 380.254 92.5059C379.34 91.709 378.021 91.2988 376.299 91.2754H373.855V88.6211Z" fill="#FFEBB7"/>
<path d="M476.855 241.621H479.299C480.834 241.598 482.041 241.193 482.92 240.408C483.799 239.623 484.238 238.562 484.238 237.227C484.238 234.227 482.744 232.727 479.756 232.727C478.35 232.727 477.225 233.131 476.381 233.939C475.549 234.736 475.133 235.797 475.133 237.121H471.881C471.881 235.094 472.619 233.412 474.096 232.076C475.584 230.729 477.471 230.055 479.756 230.055C482.17 230.055 484.062 230.693 485.434 231.971C486.805 233.248 487.49 235.023 487.49 237.297C487.49 238.41 487.127 239.488 486.4 240.531C485.686 241.574 484.707 242.354 483.465 242.869C484.871 243.314 485.955 244.053 486.717 245.084C487.49 246.115 487.877 247.375 487.877 248.863C487.877 251.16 487.127 252.982 485.627 254.33C484.127 255.678 482.176 256.352 479.773 256.352C477.371 256.352 475.414 255.701 473.902 254.4C472.402 253.1 471.652 251.383 471.652 249.25H474.922C474.922 250.598 475.361 251.676 476.24 252.484C477.119 253.293 478.297 253.697 479.773 253.697C481.344 253.697 482.545 253.287 483.377 252.467C484.209 251.646 484.625 250.469 484.625 248.934C484.625 247.445 484.168 246.303 483.254 245.506C482.34 244.709 481.021 244.299 479.299 244.275H476.855V241.621Z" fill="#FFEBB7"/>
<line y1="-1" x2="192.966" y2="-1" transform="matrix(-0.816063 0.577963 -0.561162 -0.827706 276.175 64.262)" stroke="#9DDCDC" stroke-width="2"/>
<line y1="-1" x2="187.914" y2="-1" transform="matrix(-0.822142 -0.569283 0.568797 -0.822478 273.013 282.769)" stroke="#9DDCDC" stroke-width="2"/>
<line y1="-1" x2="187.914" y2="-1" transform="matrix(-0.822142 -0.569283 0.568797 -0.822478 273.013 282.769)" stroke="#E67A7A" stroke-width="2"/>
<path d="M340.192 462.727L118.675 175.953" stroke="#9DDCDC" stroke-width="2"/>
<line y1="-1" x2="192.895" y2="-1" transform="matrix(0.826025 -0.563634 0.545973 0.837803 330.765 465.509)" stroke="#9DDCDC" stroke-width="2"/>
<line y1="-1" x2="190.253" y2="-1" transform="matrix(-0.307638 -0.951503 0.942106 -0.335315 490.051 354.678)" stroke="#9DDCDC" stroke-width="2"/>
<line y1="-1" x2="193.488" y2="-1" transform="matrix(-0.323159 -0.946345 0.936595 -0.350413 340.776 465.672)" stroke="#E67A7A" stroke-width="2"/>
<line y1="-1" x2="192.002" y2="-1" transform="matrix(0.793108 -0.609081 0.594225 0.804299 278.172 288.053)" stroke="#9DDCDC" stroke-width="2"/>
<line y1="-1" x2="187.915" y2="-1" transform="matrix(-0.82166 -0.569977 0.56945 -0.822026 430.55 171.365)" stroke="#9DDCDC" stroke-width="2"/>
<ellipse cx="276.174" cy="64.262" rx="18.6008" ry="19.1745" transform="rotate(34.1255 276.174 64.262)" fill="#FFEBB7"/>
<ellipse cx="118.724" cy="176" rx="18.6008" ry="19.1745" transform="rotate(34.1255 118.724 176)" fill="#FFEBB7"/>
<ellipse cx="278.453" cy="282.773" rx="18.6008" ry="19.1745" transform="rotate(34.1255 278.453 282.773)" fill="#FFEBB7"/>
<ellipse cx="490.255" cy="354.885" rx="18.6008" ry="19.1745" transform="rotate(34.1255 490.255 354.885)" fill="#FFEBB7"/>
<ellipse cx="341.058" cy="460.392" rx="18.6008" ry="19.1745" transform="rotate(34.1255 341.058 460.392)" fill="#FFEBB7"/>
<ellipse cx="430.65" cy="171.737" rx="18.6008" ry="19.1745" transform="rotate(34.1255 430.65 171.737)" fill="#FFEBB7"/>
<path d="M212.855 343.404H216.406V346.059H212.855V352H209.586V346.059H197.932V344.143L209.393 326.406H212.855V343.404ZM201.623 343.404H209.586V330.854L209.199 331.557L201.623 343.404Z" fill="#FFEBB7"/>
<path d="M227.896 220H211.127V217.662L219.986 207.818C221.299 206.33 222.201 205.123 222.693 204.197C223.197 203.26 223.449 202.293 223.449 201.297C223.449 199.961 223.045 198.865 222.236 198.01C221.428 197.154 220.35 196.727 219.002 196.727C217.385 196.727 216.125 197.189 215.223 198.115C214.332 199.029 213.887 200.307 213.887 201.947H210.635C210.635 199.592 211.391 197.688 212.902 196.234C214.426 194.781 216.459 194.055 219.002 194.055C221.381 194.055 223.262 194.682 224.645 195.936C226.027 197.178 226.719 198.836 226.719 200.91C226.719 203.43 225.113 206.43 221.902 209.91L215.047 217.346H227.896V220Z" fill="#FFEBB7"/>
<path d="M337.896 365H321.127V362.662L329.986 352.818C331.299 351.33 332.201 350.123 332.693 349.197C333.197 348.26 333.449 347.293 333.449 346.297C333.449 344.961 333.045 343.865 332.236 343.01C331.428 342.154 330.35 341.727 329.002 341.727C327.385 341.727 326.125 342.189 325.223 343.115C324.332 344.029 323.887 345.307 323.887 346.947H320.635C320.635 344.592 321.391 342.688 322.902 341.234C324.426 339.781 326.459 339.055 329.002 339.055C331.381 339.055 333.262 339.682 334.645 340.936C336.027 342.178 336.719 343.836 336.719 345.91C336.719 348.43 335.113 351.43 331.902 354.91L325.047 362.346H337.896V365Z" fill="#FFEBB7"/>
<path d="M364.855 249.621H367.299C368.834 249.598 370.041 249.193 370.92 248.408C371.799 247.623 372.238 246.562 372.238 245.227C372.238 242.227 370.744 240.727 367.756 240.727C366.35 240.727 365.225 241.131 364.381 241.939C363.549 242.736 363.133 243.797 363.133 245.121H359.881C359.881 243.094 360.619 241.412 362.096 240.076C363.584 238.729 365.471 238.055 367.756 238.055C370.17 238.055 372.062 238.693 373.434 239.971C374.805 241.248 375.49 243.023 375.49 245.297C375.49 246.41 375.127 247.488 374.4 248.531C373.686 249.574 372.707 250.354 371.465 250.869C372.871 251.314 373.955 252.053 374.717 253.084C375.49 254.115 375.877 255.375 375.877 256.863C375.877 259.16 375.127 260.982 373.627 262.33C372.127 263.678 370.176 264.352 367.773 264.352C365.371 264.352 363.414 263.701 361.902 262.4C360.402 261.1 359.652 259.383 359.652 257.25H362.922C362.922 258.598 363.361 259.676 364.24 260.484C365.119 261.293 366.297 261.697 367.773 261.697C369.344 261.697 370.545 261.287 371.377 260.467C372.209 259.646 372.625 258.469 372.625 256.934C372.625 255.445 372.168 254.303 371.254 253.506C370.34 252.709 369.021 252.299 367.299 252.275H364.855V249.621Z" fill="#FFEBB7"/>
<path d="M183.855 88.6211H186.299C187.834 88.5977 189.041 88.1934 189.92 87.4082C190.799 86.623 191.238 85.5625 191.238 84.2266C191.238 81.2266 189.744 79.7266 186.756 79.7266C185.35 79.7266 184.225 80.1309 183.381 80.9395C182.549 81.7363 182.133 82.7969 182.133 84.1211H178.881C178.881 82.0938 179.619 80.4121 181.096 79.0762C182.584 77.7285 184.471 77.0547 186.756 77.0547C189.17 77.0547 191.062 77.6934 192.434 78.9707C193.805 80.248 194.49 82.0234 194.49 84.2969C194.49 85.4102 194.127 86.4883 193.4 87.5312C192.686 88.5742 191.707 89.3535 190.465 89.8691C191.871 90.3145 192.955 91.0527 193.717 92.084C194.49 93.1152 194.877 94.375 194.877 95.8633C194.877 98.1602 194.127 99.9824 192.627 101.33C191.127 102.678 189.176 103.352 186.773 103.352C184.371 103.352 182.414 102.701 180.902 101.4C179.402 100.1 178.652 98.3828 178.652 96.25H181.922C181.922 97.5977 182.361 98.6758 183.24 99.4844C184.119 100.293 185.297 100.697 186.773 100.697C188.344 100.697 189.545 100.287 190.377 99.4668C191.209 98.6465 191.625 97.4688 191.625 95.9336C191.625 94.4453 191.168 93.3027 190.254 92.5059C189.34 91.709 188.021 91.2988 186.299 91.2754H183.855V88.6211Z" fill="#FFEBB7"/>
</svg>
