<svg width="554" height="523" viewBox="0 0 554 523" fill="none" xmlns="http://www.w3.org/2000/svg">
<path d="M343.855 88.6211H346.299C347.834 88.5977 349.041 88.1934 349.92 87.4082C350.799 86.623 351.238 85.5625 351.238 84.2266C351.238 81.2266 349.744 79.7266 346.756 79.7266C345.35 79.7266 344.225 80.1309 343.381 80.9395C342.549 81.7363 342.133 82.7969 342.133 84.1211H338.881C338.881 82.0938 339.619 80.4121 341.096 79.0762C342.584 77.7285 344.471 77.0547 346.756 77.0547C349.17 77.0547 351.062 77.6934 352.434 78.9707C353.805 80.248 354.49 82.0234 354.49 84.2969C354.49 85.4102 354.127 86.4883 353.4 87.5312C352.686 88.5742 351.707 89.3535 350.465 89.8691C351.871 90.3145 352.955 91.0527 353.717 92.084C354.49 93.1152 354.877 94.375 354.877 95.8633C354.877 98.1602 354.127 99.9824 352.627 101.33C351.127 102.678 349.176 103.352 346.773 103.352C344.371 103.352 342.414 102.701 340.902 101.4C339.402 100.1 338.652 98.3828 338.652 96.25H341.922C341.922 97.5977 342.361 98.6758 343.24 99.4844C344.119 100.293 345.297 100.697 346.773 100.697C348.344 100.697 349.545 100.287 350.377 99.4668C351.209 98.6465 351.625 97.4688 351.625 95.9336C351.625 94.4453 351.168 93.3027 350.254 92.5059C349.34 91.709 348.021 91.2988 346.299 91.2754H343.855V88.6211Z" fill="#FFEBB7"/>
<path d="M446.855 241.621H449.299C450.834 241.598 452.041 241.193 452.92 240.408C453.799 239.623 454.238 238.562 454.238 237.227C454.238 234.227 452.744 232.727 449.756 232.727C448.35 232.727 447.225 233.131 446.381 233.939C445.549 234.736 445.133 235.797 445.133 237.121H441.881C441.881 235.094 442.619 233.412 444.096 232.076C445.584 230.729 447.471 230.055 449.756 230.055C452.17 230.055 454.062 230.693 455.434 231.971C456.805 233.248 457.49 235.023 457.49 237.297C457.49 238.41 457.127 239.488 456.4 240.531C455.686 241.574 454.707 242.354 453.465 242.869C454.871 243.314 455.955 244.053 456.717 245.084C457.49 246.115 457.877 247.375 457.877 248.863C457.877 251.16 457.127 252.982 455.627 254.33C454.127 255.678 452.176 256.352 449.773 256.352C447.371 256.352 445.414 255.701 443.902 254.4C442.402 253.1 441.652 251.383 441.652 249.25H444.922C444.922 250.598 445.361 251.676 446.24 252.484C447.119 253.293 448.297 253.697 449.773 253.697C451.344 253.697 452.545 253.287 453.377 252.467C454.209 251.646 454.625 250.469 454.625 248.934C454.625 247.445 454.168 246.303 453.254 245.506C452.34 244.709 451.021 244.299 449.299 244.275H446.855V241.621Z" fill="#FFEBB7"/>
<line y1="-1" x2="187.914" y2="-1" transform="matrix(-0.822142 -0.569283 0.568797 -0.822478 243.013 282.769)" stroke="#9DDCDC" stroke-width="2"/>
<line y1="-1" x2="187.914" y2="-1" transform="matrix(-0.822142 -0.569283 0.568797 -0.822478 243.013 282.769)" stroke="#E67A7A" stroke-width="2"/>
<line y1="-1" x2="190.253" y2="-1" transform="matrix(-0.307638 -0.951503 0.942106 -0.335315 460.051 354.678)" stroke="#E67A7A" stroke-width="2"/>
<line y1="-1" x2="193.488" y2="-1" transform="matrix(-0.323159 -0.946345 0.936595 -0.350413 310.776 465.672)" stroke="#E67A7A" stroke-width="2"/>
<line y1="-1" x2="192.002" y2="-1" transform="matrix(0.793108 -0.609081 0.594225 0.804299 248.172 288.053)" stroke="#E67A7A" stroke-width="2"/>
<line y1="-1" x2="187.915" y2="-1" transform="matrix(-0.82166 -0.569977 0.56945 -0.822026 400.55 171.365)" stroke="#E67A7A" stroke-width="2"/>
<ellipse cx="246.174" cy="64.262" rx="18.6008" ry="19.1745" transform="rotate(34.1255 246.174 64.262)" fill="#FFEBB7"/>
<ellipse cx="88.7239" cy="176" rx="18.6008" ry="19.1745" transform="rotate(34.1255 88.7239 176)" fill="#FFEBB7"/>
<ellipse cx="248.453" cy="282.773" rx="18.6008" ry="19.1745" transform="rotate(34.1255 248.453 282.773)" fill="#FFEBB7"/>
<ellipse cx="460.255" cy="354.885" rx="18.6008" ry="19.1745" transform="rotate(34.1255 460.255 354.885)" fill="#FFEBB7"/>
<ellipse cx="311.058" cy="460.392" rx="18.6008" ry="19.1745" transform="rotate(34.1255 311.058 460.392)" fill="#FFEBB7"/>
<ellipse cx="400.65" cy="171.737" rx="18.6008" ry="19.1745" transform="rotate(34.1255 400.65 171.737)" fill="#FFEBB7"/>
<path d="M197.896 220H181.127V217.662L189.986 207.818C191.299 206.33 192.201 205.123 192.693 204.197C193.197 203.26 193.449 202.293 193.449 201.297C193.449 199.961 193.045 198.865 192.236 198.01C191.428 197.154 190.35 196.727 189.002 196.727C187.385 196.727 186.125 197.189 185.223 198.115C184.332 199.029 183.887 200.307 183.887 201.947H180.635C180.635 199.592 181.391 197.688 182.902 196.234C184.426 194.781 186.459 194.055 189.002 194.055C191.381 194.055 193.262 194.682 194.645 195.936C196.027 197.178 196.719 198.836 196.719 200.91C196.719 203.43 195.113 206.43 191.902 209.91L185.047 217.346H197.896V220Z" fill="#FFEBB7"/>
<path d="M307.896 365H291.127V362.662L299.986 352.818C301.299 351.33 302.201 350.123 302.693 349.197C303.197 348.26 303.449 347.293 303.449 346.297C303.449 344.961 303.045 343.865 302.236 343.01C301.428 342.154 300.35 341.727 299.002 341.727C297.385 341.727 296.125 342.189 295.223 343.115C294.332 344.029 293.887 345.307 293.887 346.947H290.635C290.635 344.592 291.391 342.688 292.902 341.234C294.426 339.781 296.459 339.055 299.002 339.055C301.381 339.055 303.262 339.682 304.645 340.936C306.027 342.178 306.719 343.836 306.719 345.91C306.719 348.43 305.113 351.43 301.902 354.91L295.047 362.346H307.896V365Z" fill="#FFEBB7"/>
<path d="M334.855 249.621H337.299C338.834 249.598 340.041 249.193 340.92 248.408C341.799 247.623 342.238 246.562 342.238 245.227C342.238 242.227 340.744 240.727 337.756 240.727C336.35 240.727 335.225 241.131 334.381 241.939C333.549 242.736 333.133 243.797 333.133 245.121H329.881C329.881 243.094 330.619 241.412 332.096 240.076C333.584 238.729 335.471 238.055 337.756 238.055C340.17 238.055 342.062 238.693 343.434 239.971C344.805 241.248 345.49 243.023 345.49 245.297C345.49 246.41 345.127 247.488 344.4 248.531C343.686 249.574 342.707 250.354 341.465 250.869C342.871 251.314 343.955 252.053 344.717 253.084C345.49 254.115 345.877 255.375 345.877 256.863C345.877 259.16 345.127 260.982 343.627 262.33C342.127 263.678 340.176 264.352 337.773 264.352C335.371 264.352 333.414 263.701 331.902 262.4C330.402 261.1 329.652 259.383 329.652 257.25H332.922C332.922 258.598 333.361 259.676 334.24 260.484C335.119 261.293 336.297 261.697 337.773 261.697C339.344 261.697 340.545 261.287 341.377 260.467C342.209 259.646 342.625 258.469 342.625 256.934C342.625 255.445 342.168 254.303 341.254 253.506C340.34 252.709 339.021 252.299 337.299 252.275H334.855V249.621Z" fill="#FFEBB7"/>
</svg>
